<svg xmlns="http://www.w3.org/2000/svg" width="80" height="80" viewBox="0 0 80 80" version="1.1">
	<path d="M 35.936 5.250 C 35.901 5.388, 35.737 6.853, 35.572 8.506 C 34.974 14.477, 22.567 36.929, 15.554 44.728 C 13.049 47.514, 11 50.074, 11 50.417 C 11 50.760, 12.738 50.154, 14.863 49.070 C 20.414 46.238, 27.087 38.340, 32.001 28.787 C 34.346 24.229, 37.855 17.842, 39.799 14.594 L 43.334 8.689 41.056 6.844 C 39.140 5.293, 36.162 4.365, 35.936 5.250 M 38 24.458 C 38 24.710, 40.138 26.128, 42.750 27.609 C 51.322 32.469, 57.429 36.454, 60.713 39.329 C 64.225 42.404, 67.272 42.541, 67.829 39.649 C 68.265 37.385, 64.776 33.549, 59.500 30.493 C 53.319 26.912, 38 22.612, 38 24.458 M 32.250 43.122 C 29.362 44.232, 27 45.558, 27 46.070 C 27 46.581, 29.475 47, 32.500 47 C 37.879 47, 38 47.063, 38 49.848 C 38 52.204, 37.308 53.008, 34 54.500 C 29.248 56.643, 28.858 58.590, 33 59.500 C 34.650 59.862, 36 60.506, 36 60.929 C 36 61.353, 34.623 63.601, 32.940 65.925 C 30.389 69.445, 30.091 70.405, 31.151 71.682 C 32.102 72.827, 33.568 73.067, 36.961 72.631 L 41.500 72.049 39.139 74.024 C 35.462 77.102, 38.933 76.428, 44.304 73.022 C 51.489 68.465, 50.252 64.112, 42.202 65.622 L 38.672 66.284 41.921 61.760 C 45.671 56.537, 45.804 52.685, 42.250 52.180 C 39.471 51.786, 39.366 49.482, 41.950 45.562 C 43.015 43.947, 43.660 42.259, 43.384 41.812 C 42.537 40.442, 37.763 41.003, 32.250 43.122" stroke="none" fill="black" fill-rule="evenodd"/>
</svg>